<svg xmlns="http://www.w3.org/2000/svg" xmlns:xlink="http://www.w3.org/1999/xlink"><symbol viewBox="0 0 24 24" id="cast"><path d="M.984 9.984q4.547 0 7.78 3.234T12 20.998H9.982q0-3.75-2.648-6.374T.983 12V9.982zm0 4.032q2.906 0 4.97 2.04T8.015 21H6q0-2.063-1.477-3.54t-3.54-1.476v-1.97zm0 3.984q1.22 0 2.11.89t.89 2.11h-3v-3zM21 3q.797 0 1.406.61t.61 1.405v13.97q0 .796-.61 1.405T21 21h-6.984v-2.017H21V5.013H3v3H.984v-3q0-.796.61-1.405t1.405-.61h18z"/></symbol><symbol viewBox="0 0 24 24" id="cast_connected"><path d="M21 3q.797 0 1.406.61t.61 1.405v13.97q0 .796-.61 1.405T21 21h-6.984v-2.017H21V5.013H3v3H.984v-3q0-.796.61-1.405t1.405-.61h18zM.984 9.984q4.547 0 7.78 3.234T12 20.998H9.982q0-3.75-2.648-6.374T.983 12V9.982zm18-3v10.03H13.36q-.94-2.952-3.165-5.202t-5.18-3.188v-1.64h13.97zm-18 7.032q2.906 0 4.97 2.04T8.015 21H6q0-2.063-1.477-3.54t-3.54-1.476v-1.97zm0 3.984q1.22 0 2.11.89t.89 2.11h-3v-3z"/></symbol><symbol viewBox="0 0 185 51" id="logo"><title>MIMO</title><text fill="#000" fill-rule="evenodd" font-size="70" font-family="Quicksand-Light, Quicksand" font-weight="300"><tspan x="-7" y="50">MIMO</tspan></text></symbol></svg>