<svg viewBox="0 0 380 88" xmlns="http://www.w3.org/2000/svg" xmlns:xlink="http://www.w3.org/1999/xlink"><view id="arrow-back" viewBox="0 64 24 24"/><svg width="24" height="24" viewBox="0 0 24 24" y="64"><path d="M20.016 11.016v1.969H7.828l5.578 5.625L12 20.016 3.984 12 12 3.984l1.406 1.406-5.578 5.625h12.188z"/></svg><view id="arrow-forward" viewBox="24 64 24 24"/><svg width="24" height="24" viewBox="0 0 24 24" x="24" y="64"><path d="M12 3.984L20.016 12 12 20.016l-1.406-1.406 5.578-5.625H3.984v-1.969h12.188l-5.578-5.625z"/></svg><view id="close" viewBox="48 64 24 24"/><svg width="24" height="24" viewBox="0 0 24 24" x="48" y="64"><path d="M18.984 6.422L13.406 12l5.578 5.578-1.406 1.406L12 13.406l-5.578 5.578-1.406-1.406L10.594 12 5.016 6.422l1.406-1.406L12 10.594l5.578-5.578z"/></svg><view id="logo" viewBox="0 0 380 64"/><svg width="380" height="64" viewBox="0 0 380 64"><title>Mimogear</title><text fill-rule="evenodd" font-size="70" font-family="Quicksand-Light, Quicksand" font-weight="300"><tspan x="0" y="50">Mimogear</tspan></text></svg></svg>