<?xml version="1.0" encoding="utf-8"?>
<!-- Generated by IcoMoon.io -->
<!DOCTYPE svg PUBLIC "-//W3C//DTD SVG 1.1//EN" "http://www.w3.org/Graphics/SVG/1.1/DTD/svg11.dtd">
<svg version="1.1" xmlns="http://www.w3.org/2000/svg" xmlns:xlink="http://www.w3.org/1999/xlink" width="24" height="24" viewBox="0 0 24 24">
<path d="M21 3q0.797 0 1.406 0.609t0.609 1.406v13.969q0 0.797-0.609 1.406t-1.406 0.609h-6.984v-2.016h6.984v-13.969h-18v3h-2.016v-3q0-0.797 0.609-1.406t1.406-0.609h18zM0.984 9.984q4.547 0 7.781 3.234t3.234 7.781h-2.016q0-3.75-2.648-6.375t-6.352-2.625v-2.016zM18.984 6.984v10.031h-5.625q-0.938-2.953-3.164-5.203t-5.18-3.188v-1.641h13.969zM0.984 14.016q2.906 0 4.969 2.039t2.063 4.945h-2.016q0-2.063-1.477-3.539t-3.539-1.477v-1.969zM0.984 18q1.219 0 2.109 0.891t0.891 2.109h-3v-3z"></path>
</svg>
